<svg xmlns="http://www.w3.org/2000/svg" version="1.1" width="1013" height="342"><desc>Created with Highstock 1.3.1</desc><defs><clipPath id="highcharts-7"><rect fill="none" x="0" y="0" width="953" height="281"></rect></clipPath></defs><rect rx="5" ry="5" fill="hsla(0,0%,100%, 0.5)" x="0" y="0" width="1013" height="342"></rect><g class="highcharts-grid" zIndex="1"></g><g class="highcharts-grid" zIndex="1"><path fill="none" d="M 30 241.25 L 983 241.25" stroke="#ddd" stroke-width="0.5" zIndex="1" opacity="1"></path><path fill="none" d="M 30 171.25 L 983 171.25" stroke="#ddd" stroke-width="0.5" zIndex="1" opacity="1"></path><path fill="none" d="M 30 100.25 L 983 100.25" stroke="#ddd" stroke-width="0.5" zIndex="1" opacity="1"></path><path fill="none" d="M 30 30.25 L 983 30.25" stroke="#ddd" stroke-width="0.5" zIndex="1" opacity="1"></path><path fill="none" d="M 30 312.25 L 983 312.25" stroke="#ddd" stroke-width="0.5" zIndex="1" opacity="1"></path></g><g class="highcharts-axis" zIndex="2"><path fill="none" d="M 150.5 322 L 150.5 327" stroke="#C0D0E0" stroke-width="1" opacity="1"></path><path fill="none" d="M 226.5 322 L 226.5 327" stroke="#C0D0E0" stroke-width="1" opacity="1"></path><path fill="none" d="M 301.5 322 L 301.5 327" stroke="#C0D0E0" stroke-width="1" opacity="1"></path><path fill="none" d="M 377.5 322 L 377.5 327" stroke="#C0D0E0" stroke-width="1" opacity="1"></path><path fill="none" d="M 453.5 322 L 453.5 327" stroke="#C0D0E0" stroke-width="1" opacity="1"></path><path fill="none" d="M 528.5 322 L 528.5 327" stroke="#C0D0E0" stroke-width="1" opacity="1"></path><path fill="none" d="M 604.5 322 L 604.5 327" stroke="#C0D0E0" stroke-width="1" opacity="1"></path><path fill="none" d="M 679.5 322 L 679.5 327" stroke="#C0D0E0" stroke-width="1" opacity="1"></path><path fill="none" d="M 755.5 322 L 755.5 327" stroke="#C0D0E0" stroke-width="1" opacity="1"></path><path fill="none" d="M 831.5 322 L 831.5 327" stroke="#C0D0E0" stroke-width="1" opacity="1"></path><path fill="none" d="M 906.5 322 L 906.5 327" stroke="#C0D0E0" stroke-width="1" opacity="1"></path><path fill="none" d="M 982.5 322 L 982.5 327" stroke="#C0D0E0" stroke-width="1" opacity="1"></path><path fill="none" d="M 74.5 322 L 74.5 327" stroke="#C0D0E0" stroke-width="1" opacity="1"></path><path fill="none" d="M 30 321.5 L 983 321.5" stroke="#C0D0E0" stroke-width="1" zIndex="7" visibility="visible"></path></g><g class="highcharts-axis" zIndex="2"></g><g class="highcharts-series-group" zIndex="3"><g class="highcharts-series" visibility="visible" zIndex="0.1" transform="translate(30,30) scale(1 1)" clip-path="url(#highcharts-7)"><path fill="none" d="M 0 101.5 C 0 101.5 9.076190476190476 83.1 15.126984126984127 83.1 C 21.177777777777777 83.1 24.203174603174602 91.83999999999999 30.253968253968253 95.8 C 36.304761904761904 99.75999999999999 39.33015873015873 102.9 45.38095238095238 102.9 C 51.43174603174602 102.9 54.457142857142856 90.2 60.507936507936506 90.2 C 66.55873015873016 90.2 69.58412698412698 105.7 75.63492063492063 105.7 C 81.68571428571428 105.7 84.71111111111111 105.7 90.76190476190476 104.3 C 96.81269841269841 102.89999999999999 99.83809523809524 91.6 105.88888888888889 91.6 C 111.93968253968254 91.6 114.96507936507938 102.9 121.01587301587301 102.9 C 127.06666666666665 102.9 130.0920634920635 101.5 136.14285714285714 101.5 C 142.1936507936508 101.5 145.21904761904761 109.9 151.26984126984127 109.9 C 157.32063492063492 109.9 160.34603174603174 62 166.3968253968254 62 C 172.44761904761904 62 175.47301587301587 95.8 181.52380952380952 95.8 C 187.57460317460317 95.8 190.6 88.8 196.65079365079364 88.8 C 202.7015873015873 88.8 205.7269841269841 90.82 211.77777777777777 98.7 C 217.82857142857142 106.57999999999998 220.85396825396825 128.2 226.9047619047619 128.2 C 232.95555555555558 128.2 235.98095238095237 124.03999999999999 242.03174603174602 115.6 C 248.08253968253968 107.16 251.10793650793653 86 257.1587301587302 86 C 263.20952380952383 86 266.2349206349207 112.79999999999998 272.2857142857143 115.6 C 278.3365079365079 118.4 281.3619047619048 118.4 287.41269841269843 118.4 C 293.463492063492 118.4 296.4888888888889 118.14 302.53968253968253 117 C 308.5904761904762 115.86000000000001 311.61587301587304 112.7 317.6666666666667 112.7 C 323.71746031746034 112.7 326.74285714285713 112.7 332.7936507936508 112.7 C 338.84444444444443 112.7 341.86984126984123 126.8 347.92063492063494 126.8 C 353.9714285714286 126.8 356.9968253968254 117 363.04761904761904 117 C 369.09841269841274 117 372.12380952380954 145.2 378.1746031746032 145.2 C 384.22539682539684 145.2 387.25079365079364 132.5 393.3015873015873 132.5 C 399.35238095238094 132.5 402.37777777777774 143.7 408.42857142857144 143.7 C 414.47936507936504 143.7 417.50476190476184 138.1 423.55555555555554 138.1 C 429.6063492063492 138.1 432.63174603174605 159.3 438.6825396825397 159.3 C 444.7333333333333 159.3 447.75873015873015 83.1 453.8095238095238 83.1 C 459.8603174603175 83.1 462.8857142857143 153.6 468.93650793650795 153.6 C 474.9873015873016 153.6 478.0126984126984 142.66 484.06349206349205 131.1 C 490.1142857142857 119.53999999999999 493.1396825396825 95.8 499.1904761904762 95.8 C 505.24126984126985 95.8 508.2666666666667 153.6 514.3174603174604 153.6 C 520.3682539682541 153.6 523.3936507936509 153.6 529.4444444444445 150.8 C 535.4952380952382 148.00000000000003 538.520634920635 147.1199999999999 544.5714285714286 136.7 C 550.6222222222223 126.27999999999989 553.6476190476191 98.7 559.6984126984127 98.7 C 565.7492063492064 98.7 568.7746031746032 120.3999999999999 574.8253968253969 129.7 C 580.8761904761905 138.99999999999991 583.9015873015873 138.71999999999994 589.952380952381 145.2 C 596.0031746031746 151.67999999999992 599.0285714285714 162.1 605.0793650793651 162.1 C 611.1301587301587 162.1 614.1555555555555 140.9 620.2063492063492 140.9 C 626.2571428571429 140.9 629.2825396825397 155.61999999999998 635.3333333333334 160.7 C 641.3841269841271 165.77999999999997 644.4095238095239 166.3 650.4603174603175 166.3 C 656.5111111111112 166.3 659.536507936508 164.35999999999999 665.5873015873016 162.1 C 671.6380952380953 159.83999999999997 674.6634920634921 155 680.7142857142857 155 C 686.7650793650794 155 689.7904761904762 169.7199999999999 695.8412698412699 176.2 C 701.8920634920635 182.67999999999992 704.9174603174604 187.4 710.968253968254 187.4 C 717.0190476190476 187.4 720.0444444444445 146.6 726.0952380952381 146.6 C 732.1460317460317 146.6 735.1714285714286 176.2 741.2222222222222 176.2 C 747.2730158730159 176.2 750.2984126984127 159.3 756.3492063492064 159.3 C 762.4 159.3 765.4253968253968 181.8 771.4761904761905 181.8 C 777.5269841269841 181.8 780.5523809523809 178.74000000000004 786.6031746031746 174.8 C 792.6539682539682 170.86000000000004 795.679365079365 162.1 801.7301587301587 162.1 C 807.7809523809524 162.1 810.8063492063491 198.7 816.8571428571429 198.7 C 822.9079365079364 198.7 825.9333333333332 159.3 831.984126984127 159.3 C 838.0349206349205 159.3 841.0603174603173 191.7 847.1111111111111 191.7 C 853.1619047619046 191.7 856.1873015873014 170.5 862.2380952380952 170.5 C 868.2888888888889 170.5 871.3142857142857 177.85999999999999 877.3650793650794 180.4 C 883.415873015873 182.94 892.4920634920635 183.2 892.4920634920635 183.2" stroke="rgb(120, 192, 255)" stroke-width="3" zIndex="1"></path></g><g class="highcharts-markers" visibility="visible" zIndex="0.1" transform="translate(30,30) scale(1 1)" clip-path="none"><path fill="transparent" d="M 892.4920634920635 182.2 C 893.8240634920635 182.2 893.8240634920635 184.2 892.4920634920635 184.2 C 891.1600634920635 184.2 891.1600634920635 182.2 892.4920634920635 182.2 Z" stroke="rgb(120, 192, 255)" stroke-width="4"></path><path fill="transparent" d="M 877.3650793650794 179.4 C 878.6970793650794 179.4 878.6970793650794 181.4 877.3650793650794 181.4 C 876.0330793650794 181.4 876.0330793650794 179.4 877.3650793650794 179.4 Z" stroke="rgb(120, 192, 255)" stroke-width="4"></path><path fill="transparent" d="M 862.2380952380952 169.5 C 863.5700952380952 169.5 863.5700952380952 171.5 862.2380952380952 171.5 C 860.9060952380952 171.5 860.9060952380952 169.5 862.2380952380952 169.5 Z" stroke="rgb(120, 192, 255)" stroke-width="4"></path><path fill="transparent" d="M 847.1111111111111 190.7 C 848.4431111111111 190.7 848.4431111111111 192.7 847.1111111111111 192.7 C 845.7791111111111 192.7 845.7791111111111 190.7 847.1111111111111 190.7 Z" stroke="rgb(120, 192, 255)" stroke-width="4"></path><path fill="transparent" d="M 831.984126984127 158.3 C 833.316126984127 158.3 833.316126984127 160.3 831.984126984127 160.3 C 830.652126984127 160.3 830.652126984127 158.3 831.984126984127 158.3 Z" stroke="rgb(120, 192, 255)" stroke-width="4"></path><path fill="transparent" d="M 816.8571428571429 197.7 C 818.1891428571429 197.7 818.1891428571429 199.7 816.8571428571429 199.7 C 815.5251428571429 199.7 815.5251428571429 197.7 816.8571428571429 197.7 Z" stroke="rgb(120, 192, 255)" stroke-width="4"></path><path fill="transparent" d="M 801.7301587301587 161.1 C 803.0621587301587 161.1 803.0621587301587 163.1 801.7301587301587 163.1 C 800.3981587301587 163.1 800.3981587301587 161.1 801.7301587301587 161.1 Z" stroke="rgb(120, 192, 255)" stroke-width="4"></path><path fill="transparent" d="M 786.6031746031746 173.8 C 787.9351746031746 173.8 787.9351746031746 175.8 786.6031746031746 175.8 C 785.2711746031746 175.8 785.2711746031746 173.8 786.6031746031746 173.8 Z" stroke="rgb(120, 192, 255)" stroke-width="4"></path><path fill="transparent" d="M 771.4761904761905 180.8 C 772.8081904761905 180.8 772.8081904761905 182.8 771.4761904761905 182.8 C 770.1441904761905 182.8 770.1441904761905 180.8 771.4761904761905 180.8 Z" stroke="rgb(120, 192, 255)" stroke-width="4"></path><path fill="transparent" d="M 756.3492063492064 158.3 C 757.6812063492064 158.3 757.6812063492064 160.3 756.3492063492064 160.3 C 755.0172063492064 160.3 755.0172063492064 158.3 756.3492063492064 158.3 Z" stroke="rgb(120, 192, 255)" stroke-width="4"></path><path fill="transparent" d="M 741.2222222222222 175.2 C 742.5542222222222 175.2 742.5542222222222 177.2 741.2222222222222 177.2 C 739.8902222222222 177.2 739.8902222222222 175.2 741.2222222222222 175.2 Z" stroke="rgb(120, 192, 255)" stroke-width="4"></path><path fill="transparent" d="M 726.0952380952381 145.6 C 727.4272380952381 145.6 727.4272380952381 147.6 726.0952380952381 147.6 C 724.7632380952381 147.6 724.7632380952381 145.6 726.0952380952381 145.6 Z" stroke="rgb(120, 192, 255)" stroke-width="4"></path><path fill="transparent" d="M 710.968253968254 186.4 C 712.300253968254 186.4 712.300253968254 188.4 710.968253968254 188.4 C 709.636253968254 188.4 709.636253968254 186.4 710.968253968254 186.4 Z" stroke="rgb(120, 192, 255)" stroke-width="4"></path><path fill="transparent" d="M 695.8412698412699 175.2 C 697.1732698412699 175.2 697.1732698412699 177.2 695.8412698412699 177.2 C 694.5092698412699 177.2 694.5092698412699 175.2 695.8412698412699 175.2 Z" stroke="rgb(120, 192, 255)" stroke-width="4"></path><path fill="transparent" d="M 680.7142857142857 154 C 682.0462857142857 154 682.0462857142857 156 680.7142857142857 156 C 679.3822857142857 156 679.3822857142857 154 680.7142857142857 154 Z" stroke="rgb(120, 192, 255)" stroke-width="4"></path><path fill="transparent" d="M 665.5873015873016 161.1 C 666.9193015873016 161.1 666.9193015873016 163.1 665.5873015873016 163.1 C 664.2553015873016 163.1 664.2553015873016 161.1 665.5873015873016 161.1 Z" stroke="rgb(120, 192, 255)" stroke-width="4"></path><path fill="transparent" d="M 650.4603174603175 165.3 C 651.7923174603175 165.3 651.7923174603175 167.3 650.4603174603175 167.3 C 649.1283174603175 167.3 649.1283174603175 165.3 650.4603174603175 165.3 Z" stroke="rgb(120, 192, 255)" stroke-width="4"></path><path fill="transparent" d="M 635.3333333333334 159.7 C 636.6653333333334 159.7 636.6653333333334 161.7 635.3333333333334 161.7 C 634.0013333333334 161.7 634.0013333333334 159.7 635.3333333333334 159.7 Z" stroke="rgb(120, 192, 255)" stroke-width="4"></path><path fill="transparent" d="M 620.2063492063492 139.9 C 621.5383492063492 139.9 621.5383492063492 141.9 620.2063492063492 141.9 C 618.8743492063492 141.9 618.8743492063492 139.9 620.2063492063492 139.9 Z" stroke="rgb(120, 192, 255)" stroke-width="4"></path><path fill="transparent" d="M 605.0793650793651 161.1 C 606.411365079365 161.1 606.411365079365 163.1 605.0793650793651 163.1 C 603.7473650793651 163.1 603.7473650793651 161.1 605.0793650793651 161.1 Z" stroke="rgb(120, 192, 255)" stroke-width="4"></path><path fill="transparent" d="M 589.952380952381 144.2 C 591.284380952381 144.2 591.284380952381 146.2 589.952380952381 146.2 C 588.620380952381 146.2 588.620380952381 144.2 589.952380952381 144.2 Z" stroke="rgb(120, 192, 255)" stroke-width="4"></path><path fill="transparent" d="M 574.8253968253969 128.7 C 576.1573968253969 128.7 576.1573968253969 130.7 574.8253968253969 130.7 C 573.4933968253969 130.7 573.4933968253969 128.7 574.8253968253969 128.7 Z" stroke="rgb(120, 192, 255)" stroke-width="4"></path><path fill="transparent" d="M 559.6984126984127 97.7 C 561.0304126984126 97.7 561.0304126984126 99.7 559.6984126984127 99.7 C 558.3664126984127 99.7 558.3664126984127 97.7 559.6984126984127 97.7 Z" stroke="rgb(120, 192, 255)" stroke-width="4"></path><path fill="transparent" d="M 544.5714285714286 133.7 C 548.5674285714285 133.7 548.5674285714285 139.7 544.5714285714286 139.7 C 540.5754285714286 139.7 540.5754285714286 133.7 544.5714285714286 133.7 Z" stroke="rgb(120, 192, 255)" stroke-width="5"></path><path fill="transparent" d="M 529.4444444444445 149.8 C 530.7764444444445 149.8 530.7764444444445 151.8 529.4444444444445 151.8 C 528.1124444444445 151.8 528.1124444444445 149.8 529.4444444444445 149.8 Z" stroke="rgb(120, 192, 255)" stroke-width="4"></path><path fill="transparent" d="M 514.3174603174604 152.6 C 515.6494603174604 152.6 515.6494603174604 154.6 514.3174603174604 154.6 C 512.9854603174604 154.6 512.9854603174604 152.6 514.3174603174604 152.6 Z" stroke="rgb(120, 192, 255)" stroke-width="4"></path><path fill="transparent" d="M 499.1904761904762 94.8 C 500.5224761904762 94.8 500.5224761904762 96.8 499.1904761904762 96.8 C 497.8584761904762 96.8 497.8584761904762 94.8 499.1904761904762 94.8 Z" stroke="rgb(120, 192, 255)" stroke-width="4"></path><path fill="transparent" d="M 484.06349206349205 130.1 C 485.39549206349204 130.1 485.39549206349204 132.1 484.06349206349205 132.1 C 482.73149206349206 132.1 482.73149206349206 130.1 484.06349206349205 130.1 Z" stroke="rgb(120, 192, 255)" stroke-width="4"></path><path fill="transparent" d="M 468.93650793650795 152.6 C 470.26850793650794 152.6 470.26850793650794 154.6 468.93650793650795 154.6 C 467.60450793650796 154.6 467.60450793650796 152.6 468.93650793650795 152.6 Z" stroke="rgb(120, 192, 255)" stroke-width="4"></path><path fill="transparent" d="M 453.8095238095238 82.1 C 455.1415238095238 82.1 455.1415238095238 84.1 453.8095238095238 84.1 C 452.4775238095238 84.1 452.4775238095238 82.1 453.8095238095238 82.1 Z" stroke="rgb(120, 192, 255)" stroke-width="4"></path><path fill="transparent" d="M 438.6825396825397 158.3 C 440.0145396825397 158.3 440.0145396825397 160.3 438.6825396825397 160.3 C 437.3505396825397 160.3 437.3505396825397 158.3 438.6825396825397 158.3 Z" stroke="rgb(120, 192, 255)" stroke-width="4"></path><path fill="transparent" d="M 423.55555555555554 137.1 C 424.88755555555554 137.1 424.88755555555554 139.1 423.55555555555554 139.1 C 422.22355555555555 139.1 422.22355555555555 137.1 423.55555555555554 137.1 Z" stroke="rgb(120, 192, 255)" stroke-width="4"></path><path fill="transparent" d="M 408.42857142857144 142.7 C 409.76057142857144 142.7 409.76057142857144 144.7 408.42857142857144 144.7 C 407.09657142857145 144.7 407.09657142857145 142.7 408.42857142857144 142.7 Z" stroke="rgb(120, 192, 255)" stroke-width="4"></path><path fill="transparent" d="M 393.3015873015873 131.5 C 394.6335873015873 131.5 394.6335873015873 133.5 393.3015873015873 133.5 C 391.9695873015873 133.5 391.9695873015873 131.5 393.3015873015873 131.5 Z" stroke="rgb(120, 192, 255)" stroke-width="4"></path><path fill="transparent" d="M 378.1746031746032 144.2 C 379.5066031746032 144.2 379.5066031746032 146.2 378.1746031746032 146.2 C 376.8426031746032 146.2 376.8426031746032 144.2 378.1746031746032 144.2 Z" stroke="rgb(120, 192, 255)" stroke-width="4"></path><path fill="transparent" d="M 363.04761904761904 116 C 364.37961904761903 116 364.37961904761903 118 363.04761904761904 118 C 361.71561904761904 118 361.71561904761904 116 363.04761904761904 116 Z" stroke="rgb(120, 192, 255)" stroke-width="4"></path><path fill="transparent" d="M 347.92063492063494 125.8 C 349.25263492063493 125.8 349.25263492063493 127.8 347.92063492063494 127.8 C 346.58863492063495 127.8 346.58863492063495 125.8 347.92063492063494 125.8 Z" stroke="rgb(120, 192, 255)" stroke-width="4"></path><path fill="transparent" d="M 332.7936507936508 111.7 C 334.1256507936508 111.7 334.1256507936508 113.7 332.7936507936508 113.7 C 331.4616507936508 113.7 331.4616507936508 111.7 332.7936507936508 111.7 Z" stroke="rgb(120, 192, 255)" stroke-width="4"></path><path fill="transparent" d="M 317.6666666666667 111.7 C 318.9986666666667 111.7 318.9986666666667 113.7 317.6666666666667 113.7 C 316.3346666666667 113.7 316.3346666666667 111.7 317.6666666666667 111.7 Z" stroke="rgb(120, 192, 255)" stroke-width="4"></path><path fill="transparent" d="M 302.53968253968253 116 C 303.8716825396825 116 303.8716825396825 118 302.53968253968253 118 C 301.20768253968254 118 301.20768253968254 116 302.53968253968253 116 Z" stroke="rgb(120, 192, 255)" stroke-width="4"></path><path fill="transparent" d="M 287.41269841269843 117.4 C 288.7446984126984 117.4 288.7446984126984 119.4 287.41269841269843 119.4 C 286.08069841269844 119.4 286.08069841269844 117.4 287.41269841269843 117.4 Z" stroke="rgb(120, 192, 255)" stroke-width="4"></path><path fill="transparent" d="M 272.2857142857143 114.6 C 273.61771428571427 114.6 273.61771428571427 116.6 272.2857142857143 116.6 C 270.9537142857143 116.6 270.9537142857143 114.6 272.2857142857143 114.6 Z" stroke="rgb(120, 192, 255)" stroke-width="4"></path><path fill="transparent" d="M 257.1587301587302 85 C 258.4907301587302 85 258.4907301587302 87 257.1587301587302 87 C 255.8267301587302 87 255.8267301587302 85 257.1587301587302 85 Z" stroke="rgb(120, 192, 255)" stroke-width="4"></path><path fill="transparent" d="M 242.03174603174602 114.6 C 243.36374603174602 114.6 243.36374603174602 116.6 242.03174603174602 116.6 C 240.69974603174603 116.6 240.69974603174603 114.6 242.03174603174602 114.6 Z" stroke="rgb(120, 192, 255)" stroke-width="4"></path><path fill="transparent" d="M 226.9047619047619 127.19999999999999 C 228.2367619047619 127.19999999999999 228.2367619047619 129.2 226.9047619047619 129.2 C 225.5727619047619 129.2 225.5727619047619 127.19999999999999 226.9047619047619 127.19999999999999 Z" stroke="rgb(120, 192, 255)" stroke-width="4"></path><path fill="transparent" d="M 211.77777777777777 97.7 C 213.10977777777777 97.7 213.10977777777777 99.7 211.77777777777777 99.7 C 210.44577777777778 99.7 210.44577777777778 97.7 211.77777777777777 97.7 Z" stroke="rgb(120, 192, 255)" stroke-width="4"></path><path fill="transparent" d="M 196.65079365079364 87.8 C 197.98279365079364 87.8 197.98279365079364 89.8 196.65079365079364 89.8 C 195.31879365079365 89.8 195.31879365079365 87.8 196.65079365079364 87.8 Z" stroke="rgb(120, 192, 255)" stroke-width="4"></path><path fill="transparent" d="M 181.52380952380952 94.8 C 182.8558095238095 94.8 182.8558095238095 96.8 181.52380952380952 96.8 C 180.19180952380952 96.8 180.19180952380952 94.8 181.52380952380952 94.8 Z" stroke="rgb(120, 192, 255)" stroke-width="4"></path><path fill="transparent" d="M 166.3968253968254 61 C 167.72882539682539 61 167.72882539682539 63 166.3968253968254 63 C 165.0648253968254 63 165.0648253968254 61 166.3968253968254 61 Z" stroke="rgb(120, 192, 255)" stroke-width="4"></path><path fill="transparent" d="M 151.26984126984127 108.9 C 152.60184126984126 108.9 152.60184126984126 110.9 151.26984126984127 110.9 C 149.93784126984127 110.9 149.93784126984127 108.9 151.26984126984127 108.9 Z" stroke="rgb(120, 192, 255)" stroke-width="4"></path><path fill="transparent" d="M 136.14285714285714 100.5 C 137.47485714285713 100.5 137.47485714285713 102.5 136.14285714285714 102.5 C 134.81085714285715 102.5 134.81085714285715 100.5 136.14285714285714 100.5 Z" stroke="rgb(120, 192, 255)" stroke-width="4"></path><path fill="transparent" d="M 121.01587301587301 101.9 C 122.347873015873 101.9 122.347873015873 103.9 121.01587301587301 103.9 C 119.68387301587302 103.9 119.68387301587302 101.9 121.01587301587301 101.9 Z" stroke="rgb(120, 192, 255)" stroke-width="4"></path><path fill="transparent" d="M 105.88888888888889 90.6 C 107.22088888888888 90.6 107.22088888888888 92.6 105.88888888888889 92.6 C 104.55688888888889 92.6 104.55688888888889 90.6 105.88888888888889 90.6 Z" stroke="rgb(120, 192, 255)" stroke-width="4"></path><path fill="transparent" d="M 90.76190476190476 103.3 C 92.09390476190475 103.3 92.09390476190475 105.3 90.76190476190476 105.3 C 89.42990476190477 105.3 89.42990476190477 103.3 90.76190476190476 103.3 Z" stroke="rgb(120, 192, 255)" stroke-width="4"></path><path fill="transparent" d="M 75.63492063492063 104.7 C 76.96692063492063 104.7 76.96692063492063 106.7 75.63492063492063 106.7 C 74.30292063492064 106.7 74.30292063492064 104.7 75.63492063492063 104.7 Z" stroke="rgb(120, 192, 255)" stroke-width="4"></path><path fill="transparent" d="M 60.507936507936506 89.2 C 61.83993650793651 89.2 61.83993650793651 91.2 60.507936507936506 91.2 C 59.175936507936505 91.2 59.175936507936505 89.2 60.507936507936506 89.2 Z" stroke="rgb(120, 192, 255)" stroke-width="4"></path><path fill="transparent" d="M 45.38095238095238 101.9 C 46.71295238095238 101.9 46.71295238095238 103.9 45.38095238095238 103.9 C 44.04895238095238 103.9 44.04895238095238 101.9 45.38095238095238 101.9 Z" stroke="rgb(120, 192, 255)" stroke-width="4"></path><path fill="transparent" d="M 30.253968253968253 94.8 C 31.585968253968254 94.8 31.585968253968254 96.8 30.253968253968253 96.8 C 28.921968253968252 96.8 28.921968253968252 94.8 30.253968253968253 94.8 Z" stroke="rgb(120, 192, 255)" stroke-width="4"></path><path fill="transparent" d="M 15.126984126984127 82.1 C 16.458984126984127 82.1 16.458984126984127 84.1 15.126984126984127 84.1 C 13.794984126984126 84.1 13.794984126984126 82.1 15.126984126984127 82.1 Z" stroke="rgb(120, 192, 255)" stroke-width="4"></path><path fill="transparent" d="M 0 100.5 C 1.332 100.5 1.332 102.5 0 102.5 C -1.332 102.5 -1.332 100.5 0 100.5 Z" stroke="rgb(120, 192, 255)" stroke-width="4"></path><path fill="none" d="M -10 101.5 L 0 101.5 C 0 101.5 9.076190476190476 83.1 15.126984126984127 83.1 C 21.177777777777777 83.1 24.203174603174602 91.83999999999999 30.253968253968253 95.8 C 36.304761904761904 99.75999999999999 39.33015873015873 102.9 45.38095238095238 102.9 C 51.43174603174602 102.9 54.457142857142856 90.2 60.507936507936506 90.2 C 66.55873015873016 90.2 69.58412698412698 105.7 75.63492063492063 105.7 C 81.68571428571428 105.7 84.71111111111111 105.7 90.76190476190476 104.3 C 96.81269841269841 102.89999999999999 99.83809523809524 91.6 105.88888888888889 91.6 C 111.93968253968254 91.6 114.96507936507938 102.9 121.01587301587301 102.9 C 127.06666666666665 102.9 130.0920634920635 101.5 136.14285714285714 101.5 C 142.1936507936508 101.5 145.21904761904761 109.9 151.26984126984127 109.9 C 157.32063492063492 109.9 160.34603174603174 62 166.3968253968254 62 C 172.44761904761904 62 175.47301587301587 95.8 181.52380952380952 95.8 C 187.57460317460317 95.8 190.6 88.8 196.65079365079364 88.8 C 202.7015873015873 88.8 205.7269841269841 90.82 211.77777777777777 98.7 C 217.82857142857142 106.57999999999998 220.85396825396825 128.2 226.9047619047619 128.2 C 232.95555555555558 128.2 235.98095238095237 124.03999999999999 242.03174603174602 115.6 C 248.08253968253968 107.16 251.10793650793653 86 257.1587301587302 86 C 263.20952380952383 86 266.2349206349207 112.79999999999998 272.2857142857143 115.6 C 278.3365079365079 118.4 281.3619047619048 118.4 287.41269841269843 118.4 C 293.463492063492 118.4 296.4888888888889 118.14 302.53968253968253 117 C 308.5904761904762 115.86000000000001 311.61587301587304 112.7 317.6666666666667 112.7 C 323.71746031746034 112.7 326.74285714285713 112.7 332.7936507936508 112.7 C 338.84444444444443 112.7 341.86984126984123 126.8 347.92063492063494 126.8 C 353.9714285714286 126.8 356.9968253968254 117 363.04761904761904 117 C 369.09841269841274 117 372.12380952380954 145.2 378.1746031746032 145.2 C 384.22539682539684 145.2 387.25079365079364 132.5 393.3015873015873 132.5 C 399.35238095238094 132.5 402.37777777777774 143.7 408.42857142857144 143.7 C 414.47936507936504 143.7 417.50476190476184 138.1 423.55555555555554 138.1 C 429.6063492063492 138.1 432.63174603174605 159.3 438.6825396825397 159.3 C 444.7333333333333 159.3 447.75873015873015 83.1 453.8095238095238 83.1 C 459.8603174603175 83.1 462.8857142857143 153.6 468.93650793650795 153.6 C 474.9873015873016 153.6 478.0126984126984 142.66 484.06349206349205 131.1 C 490.1142857142857 119.53999999999999 493.1396825396825 95.8 499.1904761904762 95.8 C 505.24126984126985 95.8 508.2666666666667 153.6 514.3174603174604 153.6 C 520.3682539682541 153.6 523.3936507936509 153.6 529.4444444444445 150.8 C 535.4952380952382 148.00000000000003 538.520634920635 147.1199999999999 544.5714285714286 136.7 C 550.6222222222223 126.27999999999989 553.6476190476191 98.7 559.6984126984127 98.7 C 565.7492063492064 98.7 568.7746031746032 120.3999999999999 574.8253968253969 129.7 C 580.8761904761905 138.99999999999991 583.9015873015873 138.71999999999994 589.952380952381 145.2 C 596.0031746031746 151.67999999999992 599.0285714285714 162.1 605.0793650793651 162.1 C 611.1301587301587 162.1 614.1555555555555 140.9 620.2063492063492 140.9 C 626.2571428571429 140.9 629.2825396825397 155.61999999999998 635.3333333333334 160.7 C 641.3841269841271 165.77999999999997 644.4095238095239 166.3 650.4603174603175 166.3 C 656.5111111111112 166.3 659.536507936508 164.35999999999999 665.5873015873016 162.1 C 671.6380952380953 159.83999999999997 674.6634920634921 155 680.7142857142857 155 C 686.7650793650794 155 689.7904761904762 169.7199999999999 695.8412698412699 176.2 C 701.8920634920635 182.67999999999992 704.9174603174604 187.4 710.968253968254 187.4 C 717.0190476190476 187.4 720.0444444444445 146.6 726.0952380952381 146.6 C 732.1460317460317 146.6 735.1714285714286 176.2 741.2222222222222 176.2 C 747.2730158730159 176.2 750.2984126984127 159.3 756.3492063492064 159.3 C 762.4 159.3 765.4253968253968 181.8 771.4761904761905 181.8 C 777.5269841269841 181.8 780.5523809523809 178.74000000000004 786.6031746031746 174.8 C 792.6539682539682 170.86000000000004 795.679365079365 162.1 801.7301587301587 162.1 C 807.7809523809524 162.1 810.8063492063491 198.7 816.8571428571429 198.7 C 822.9079365079364 198.7 825.9333333333332 159.3 831.984126984127 159.3 C 838.0349206349205 159.3 841.0603174603173 191.7 847.1111111111111 191.7 C 853.1619047619046 191.7 856.1873015873014 170.5 862.2380952380952 170.5 C 868.2888888888889 170.5 871.3142857142857 177.85999999999999 877.3650793650794 180.4 C 883.415873015873 182.94 892.4920634920635 183.2 892.4920634920635 183.2 L 902.4920634920635 183.2" class="highcharts-tracker highcharts-tracker" stroke-linejoin="round" visibility="visible" stroke-opacity="0.0001" stroke="rgb(192,192,192)" stroke-width="22" zIndex="2" style=""></path></g></g><text x="507" y="25" style="font-family:&quot;Lucida Grande&quot;, &quot;Lucida Sans Unicode&quot;, Verdana, Arial, Helvetica, sans-serif;font-size:16px;color:#274b6d;fill:#274b6d;" text-anchor="middle" class="highcharts-title" zIndex="4"><tspan x="507"> </tspan></text><g class="highcharts-axis-labels" zIndex="7"><text x="75.38095238095238" y="336" style="font-family:&quot;Lucida Grande&quot;, &quot;Lucida Sans Unicode&quot;, Verdana, Arial, Helvetica, sans-serif;font-size:11px;color:#666;cursor:default;line-height:14px;fill:#666;" text-anchor="middle" opacity="1"><tspan x="75.38095238095238">01:30</tspan></text><text x="151.015873015873" y="336" style="font-family:&quot;Lucida Grande&quot;, &quot;Lucida Sans Unicode&quot;, Verdana, Arial, Helvetica, sans-serif;font-size:11px;color:#666;cursor:default;line-height:14px;fill:#666;" text-anchor="middle" opacity="1"><tspan x="151.015873015873">01:35</tspan></text><text x="226.65079365079364" y="336" style="font-family:&quot;Lucida Grande&quot;, &quot;Lucida Sans Unicode&quot;, Verdana, Arial, Helvetica, sans-serif;font-size:11px;color:#666;cursor:default;line-height:14px;fill:#666;" text-anchor="middle" opacity="1"><tspan x="226.65079365079364">01:40</tspan></text><text x="302.2857142857143" y="336" style="font-family:&quot;Lucida Grande&quot;, &quot;Lucida Sans Unicode&quot;, Verdana, Arial, Helvetica, sans-serif;font-size:11px;color:#666;cursor:default;line-height:14px;fill:#666;" text-anchor="middle" opacity="1"><tspan x="302.2857142857143">01:45</tspan></text><text x="377.92063492063494" y="336" style="font-family:&quot;Lucida Grande&quot;, &quot;Lucida Sans Unicode&quot;, Verdana, Arial, Helvetica, sans-serif;font-size:11px;color:#666;cursor:default;line-height:14px;fill:#666;" text-anchor="middle" opacity="1"><tspan x="377.92063492063494">01:50</tspan></text><text x="453.55555555555554" y="336" style="font-family:&quot;Lucida Grande&quot;, &quot;Lucida Sans Unicode&quot;, Verdana, Arial, Helvetica, sans-serif;font-size:11px;color:#666;cursor:default;line-height:14px;fill:#666;" text-anchor="middle" opacity="1"><tspan x="453.55555555555554">01:55</tspan></text><text x="529.1904761904761" y="336" style="font-family:&quot;Lucida Grande&quot;, &quot;Lucida Sans Unicode&quot;, Verdana, Arial, Helvetica, sans-serif;font-size:11px;color:#666;cursor:default;line-height:14px;fill:#666;" text-anchor="middle" opacity="1"><tspan x="529.1904761904761">02:00</tspan></text><text x="604.8253968253969" y="336" style="font-family:&quot;Lucida Grande&quot;, &quot;Lucida Sans Unicode&quot;, Verdana, Arial, Helvetica, sans-serif;font-size:11px;color:#666;cursor:default;line-height:14px;fill:#666;" text-anchor="middle" opacity="1"><tspan x="604.8253968253969">02:05</tspan></text><text x="680.4603174603175" y="336" style="font-family:&quot;Lucida Grande&quot;, &quot;Lucida Sans Unicode&quot;, Verdana, Arial, Helvetica, sans-serif;font-size:11px;color:#666;cursor:default;line-height:14px;fill:#666;" text-anchor="middle" opacity="1"><tspan x="680.4603174603175">02:10</tspan></text><text x="756.0952380952381" y="336" style="font-family:&quot;Lucida Grande&quot;, &quot;Lucida Sans Unicode&quot;, Verdana, Arial, Helvetica, sans-serif;font-size:11px;color:#666;cursor:default;line-height:14px;fill:#666;" text-anchor="middle" opacity="1"><tspan x="756.0952380952381">02:15</tspan></text><text x="831.7301587301587" y="336" style="font-family:&quot;Lucida Grande&quot;, &quot;Lucida Sans Unicode&quot;, Verdana, Arial, Helvetica, sans-serif;font-size:11px;color:#666;cursor:default;line-height:14px;fill:#666;" text-anchor="middle" opacity="1"><tspan x="831.7301587301587">02:20</tspan></text><text x="907.3650793650794" y="336" style="font-family:&quot;Lucida Grande&quot;, &quot;Lucida Sans Unicode&quot;, Verdana, Arial, Helvetica, sans-serif;font-size:11px;color:#666;cursor:default;line-height:14px;fill:#666;" text-anchor="middle" opacity="1"><tspan x="907.3650793650794">02:25</tspan></text><text x="983" y="336" style="font-family:&quot;Lucida Grande&quot;, &quot;Lucida Sans Unicode&quot;, Verdana, Arial, Helvetica, sans-serif;font-size:11px;color:#666;cursor:default;line-height:14px;fill:#666;" text-anchor="middle" opacity="1"><tspan x="983">02:30</tspan></text></g><g class="highcharts-axis-labels" zIndex="7"><text x="22" y="316.95907046476765" style="font-family:&quot;Lucida Grande&quot;, &quot;Lucida Sans Unicode&quot;, Verdana, Arial, Helvetica, sans-serif;font-size:11px;width:10px;color:#666;cursor:default;line-height:14px;fill:#666;" text-anchor="end" opacity="1"><tspan x="22">0</tspan></text><text x="22" y="246.4943028485759" style="font-family:&quot;Lucida Grande&quot;, &quot;Lucida Sans Unicode&quot;, Verdana, Arial, Helvetica, sans-serif;font-size:11px;width:10px;color:#666;cursor:default;line-height:14px;fill:#666;" text-anchor="end" opacity="1"><tspan x="22">50</tspan></text><text x="22" y="176.02953523238466" style="font-family:&quot;Lucida Grande&quot;, &quot;Lucida Sans Unicode&quot;, Verdana, Arial, Helvetica, sans-serif;font-size:11px;width:10px;color:#666;cursor:default;line-height:14px;fill:#666;" text-anchor="end" opacity="1"><tspan x="22">100</tspan></text><text x="22" y="105.56476761618978" style="font-family:&quot;Lucida Grande&quot;, &quot;Lucida Sans Unicode&quot;, Verdana, Arial, Helvetica, sans-serif;font-size:11px;width:10px;color:#666;cursor:default;line-height:14px;fill:#666;" text-anchor="end" opacity="1"><tspan x="22">150</tspan></text><text x="22" y="35.099999999998545" style="font-family:&quot;Lucida Grande&quot;, &quot;Lucida Sans Unicode&quot;, Verdana, Arial, Helvetica, sans-serif;font-size:11px;width:10px;color:#666;cursor:default;line-height:14px;fill:#666;" text-anchor="end" opacity="1"><tspan x="22">200</tspan></text></g><g class="highcharts-tooltip" zIndex="8" style="cursor:default;padding:0;white-space:nowrap;" visibility="visible" opacity="1" transform="translate(482,130)"><rect rx="3" ry="3" fill="none" x="0.5" y="0.5" width="81" height="52" fill-opacity="0.85" isShadow="true" stroke="black" stroke-opacity="0.049999999999999996" stroke-width="5" transform="translate(1, 1)"></rect><rect rx="3" ry="3" fill="none" x="0.5" y="0.5" width="81" height="52" fill-opacity="0.85" isShadow="true" stroke="black" stroke-opacity="0.09999999999999999" stroke-width="3" transform="translate(1, 1)"></rect><rect rx="3" ry="3" fill="none" x="0.5" y="0.5" width="81" height="52" fill-opacity="0.85" isShadow="true" stroke="black" stroke-opacity="0.15" stroke-width="1" transform="translate(1, 1)"></rect><rect rx="3" ry="3" fill="rgb(255,255,255)" x="0.5" y="0.5" width="81" height="52" fill-opacity="0.85" stroke="rgb(120, 192, 255)" stroke-width="1" anchorX="93.5" anchorY="37"></rect></g></svg>