<?xml version="1.0" encoding="utf-8"?>
<!-- Generator: Adobe Illustrator 15.1.0, SVG Export Plug-In . SVG Version: 6.00 Build 0)  -->
<!DOCTYPE svg PUBLIC "-//W3C//DTD SVG 1.1//EN" "http://www.w3.org/Graphics/SVG/1.1/DTD/svg11.dtd">
<svg version="1.1" id="Layer_1" xmlns="http://www.w3.org/2000/svg" xmlns:xlink="http://www.w3.org/1999/xlink" x="0px" y="0px"
	 width="200px" height="200px" viewBox="0 0 200 200" enable-background="new 0 0 200 200" xml:space="preserve">
<path fill="#282A1F" d="M166.657,100.015l-0.334-6.595c5.11-2.183,10.146-4.775,15.11-7.771c-0.408-3.105-1.41-6.099-2.144-9.139
	c-5.84-0.793-11.755-1.052-17.384-0.894c-0.751-2.069-1.852-3.993-2.765-5.994c-0.993-1.963-2.243-3.789-3.354-5.686
	c3.569-4.364,6.754-8.961,9.761-13.929c-1.792-2.57-4.079-4.729-6.139-7.072c-5.53,2.018-10.885,4.535-15.798,7.289
	c-1.639-1.469-3.49-2.682-5.228-4.03c-1.803-1.259-3.74-2.322-5.604-3.488c1.129-5.495,1.831-11.069,2.186-16.863
	c-2.787-1.437-5.823-2.299-8.744-3.419c-3.964,4.353-7.537,9.082-10.602,13.806c-2.128-0.573-4.34-0.733-6.505-1.118
	c-2.175-0.352-4.391-0.292-6.583-0.455c-1.559-5.53-3.524-10.654-5.895-15.958c-3.123,0.062-6.216,0.545-9.308,1.043
	c-1.514,5.587-2.479,11.473-2.991,17.133c-2.159,0.468-4.22,1.25-6.282,2.021c-2.102,0.676-4.059,1.695-6.044,2.648
	c-3.936-4.129-8.14-7.894-12.668-11.394c-2.724,1.55-5.277,3.345-7.744,5.271c1.278,5.662,3.146,11.282,5.339,16.549
	c-1.688,1.421-3.151,3.068-4.621,4.707c-1.548,1.572-2.8,3.393-4.126,5.148c-5.405-1.838-10.85-3.213-16.5-4.23
	c-1.704,2.629-3.112,5.422-4.425,8.269c3.747,4.423,8.027,8.55,12.406,12.189c-0.839,2.042-1.366,4.182-1.897,6.319
	c-0.635,2.115-0.92,4.302-1.246,6.481c-5.622,0.896-11.163,2.214-16.577,3.947c-0.211,3.117-0.306,6.23-0.055,9.348
	c5.458,2.163,10.946,3.848,16.632,5.029c0.325,2.177,0.611,4.364,1.246,6.479c0.531,2.137,1.059,4.275,1.897,6.318
	c-4.437,3.35-8.934,7.176-12.872,11.21c1.369,2.813,2.618,5.697,4.329,8.319c5.892-0.656,11.471-1.683,17.063-3.301
	c1.327,1.755,2.579,3.575,4.126,5.148c1.47,1.638,2.935,3.285,4.621,4.709c-2.381,5.033-4.577,10.489-6.204,15.895
	c2.504,1.871,4.955,3.816,7.683,5.36c4.908-3.296,9.392-6.813,13.595-10.832c1.985,0.953,3.942,1.973,6.044,2.649
	c2.063,0.771,4.123,1.553,6.282,2.021c0.239,5.552,0.839,11.421,1.922,16.962c3.092,0.433,6.173,1.106,9.297,1.157
	c2.8-5.28,5.126-10.375,6.975-15.901c2.194-0.162,4.408-0.104,6.583-0.454c2.165-0.385,4.377-0.545,6.505-1.118
	c2.792,4.823,5.987,9.554,9.574,14.148c2.949-1.034,5.932-2.034,8.791-3.297c0.04-5.974-0.338-11.708-1.205-17.328
	c1.864-1.167,3.802-2.231,5.604-3.488c1.737-1.349,3.589-2.561,5.228-4.03c4.715,2.968,9.742,5.667,15.047,8.067
	c2.124-2.282,4.305-4.535,6.237-6.984c-2.741-5.311-5.713-10.199-9.108-14.794c1.111-1.9,2.361-3.723,3.354-5.687
	c0.913-2.001,2.014-3.925,2.765-5.994c5.555,0.439,11.263,0.492,17.078,0.147c0.828-3.014,1.683-6.042,2.28-9.107
	c-4.889-3.422-9.875-6.372-14.941-8.843L166.657,100.015z M100.59,125.099c-13.869,0-25.112-11.243-25.112-25.112
	c0-13.87,11.243-25.115,25.112-25.115c13.87,0,25.115,11.245,25.115,25.115C125.705,113.855,114.46,125.099,100.59,125.099z"/>
</svg>
