<?xml version="1.0" encoding="utf-8"?>
<!-- Generator: Adobe Illustrator 15.1.0, SVG Export Plug-In . SVG Version: 6.00 Build 0)  -->
<!DOCTYPE svg PUBLIC "-//W3C//DTD SVG 1.1//EN" "http://www.w3.org/Graphics/SVG/1.1/DTD/svg11.dtd">
<svg version="1.1" id="Layer_1" xmlns="http://www.w3.org/2000/svg" xmlns:xlink="http://www.w3.org/1999/xlink" x="0px" y="0px"
	 width="300px" height="300px" viewBox="0 0 300 300" enable-background="new 0 0 300 300" xml:space="preserve">
<g>
	<path fill="#282A1F" d="M260.91,165.448c0.438-2.858,0.624-5.751,0.821-8.632c7.031-1.808,14.168-4.025,21.065-6.654
		c0.016-3.916-0.228-7.824-0.553-11.718c-7.271-2.387-14.47-4.3-21.815-5.71c-0.402-2.866-1.089-5.676-1.683-8.506
		c-0.763-2.787-1.438-5.602-2.39-8.334c5.995-4.245,11.729-8.829,17.281-13.781c-1.417-3.641-2.969-7.241-4.739-10.728
		c-7.567,0.34-15.093,1.204-22.387,2.493c-1.492-2.474-2.979-4.961-4.674-7.303c-1.617-2.4-3.416-4.666-5.198-6.942
		c3.968-6.066,7.72-12.488,11.079-19.107c-2.643-2.884-5.436-5.619-8.293-8.286c-7.004,3.16-13.593,6.566-19.981,10.479
		c-2.237-1.833-4.616-3.48-6.978-5.148c-2.425-1.574-4.848-3.152-7.379-4.553c1.575-7.197,2.684-14.386,3.475-21.837
		c-3.513-1.707-7.075-3.315-10.724-4.716c-5.354,5.348-10.345,11.08-14.86,16.922c-2.768-0.841-5.55-1.625-8.374-2.253
		c-2.815-0.649-5.66-1.199-8.521-1.607c-1.142-7.209-2.688-14.465-4.666-21.599c-3.894-0.389-7.813-0.516-11.724-0.528
		c-3.056,6.959-5.625,14.026-7.71,21.178c-2.887,0.157-5.76,0.531-8.622,0.921c-2.86,0.428-5.705,0.937-8.522,1.597
		c-3.689-6.39-7.706-12.424-12.139-18.477c-3.736,1.113-7.463,2.294-11.097,3.737c-0.367,7.537-0.181,15.172,0.403,22.505
		c-2.59,1.282-5.208,2.518-7.7,3.99c-2.546,1.373-4.96,2.973-7.393,4.532c-5.661-4.5-11.744-8.878-17.998-12.8
		c-3.125,2.357-6.106,4.892-9.021,7.499c2.48,7.248,5.287,14.146,8.584,20.857c-2.036,2.054-3.892,4.277-5.761,6.48
		c-1.812,2.254-3.583,4.539-5.221,6.923c-7.02-2.228-14.069-3.984-21.43-5.465c-2.013,3.346-3.938,6.744-5.676,10.243
		c4.871,5.839,10.057,11.307,15.494,16.357c-1.119,2.667-2.126,5.377-3.027,8.125c-0.865,2.757-1.75,5.516-2.38,8.338
		c-7.317,0.46-14.639,1.336-21.944,2.637c-0.722,3.842-1.273,7.727-1.609,11.623c6.617,3.688,13.473,6.908,20.355,9.646
		c-0.031,2.888-0.069,5.787,0.139,8.67c0.119,2.891,0.445,5.764,0.781,8.637c-6.612,3.077-13.095,6.549-19.499,10.411
		c0.776,3.822,1.631,7.625,2.71,11.372c7.503,1.038,15.077,1.571,22.457,1.657c1.014,2.708,2.037,5.413,3.252,8.038
		c1.133,2.661,2.491,5.221,3.838,7.776c-5.032,5.232-9.939,10.869-14.424,16.733c2.045,3.336,4.3,6.541,6.634,9.68
		c7.422-1.775,14.58-3.957,21.557-6.608c1.851,2.221,3.898,4.271,5.926,6.328c2.059,2.032,4.192,3.982,6.406,5.844
		c-2.841,6.76-5.264,13.651-7.408,20.84c3.149,2.311,6.36,4.534,9.68,6.593c6.278-4.347,12.167-8.954,17.714-13.938
		c2.547,1.371,5.165,2.596,7.807,3.772c2.669,1.106,5.335,2.234,8.084,3.132c-0.222,7.341-0.015,14.675,0.593,22.098
		c3.763,1.051,7.568,1.986,11.419,2.674c4.282-6.228,8.133-12.801,11.492-19.358c2.878,0.275,5.756,0.596,8.647,0.654
		c2.889,0.171,5.783,0.074,8.673,0.031c2.449,6.806,5.321,13.712,8.576,20.351c3.896-0.363,7.755-0.953,11.601-1.626
		c1.691-7.492,2.947-14.797,3.681-22.25c2.806-0.7,5.569-1.547,8.31-2.473c2.724-0.961,5.45-1.94,8.09-3.12
		c4.763,5.539,9.892,10.895,15.321,15.925c3.518-1.714,6.918-3.668,10.253-5.712c-1.056-7.524-2.586-14.89-4.571-22.067
		c2.358-1.672,4.637-3.46,6.846-5.322c2.225-1.849,4.342-3.82,6.419-5.831c6.44,3.425,13.128,6.515,20.06,9.282
		c2.613-2.907,5.101-5.919,7.469-9.027c-3.781-6.673-7.777-12.922-12.262-18.924c1.611-2.402,3.045-4.915,4.483-7.423
		c1.337-2.562,2.702-5.113,3.854-7.767c7.301,0.902,14.591,1.359,22.062,1.45c1.385-3.65,2.662-7.35,3.713-11.117
		c-5.793-4.833-12.008-9.284-18.208-13.233C260.003,171.158,260.567,168.321,260.91,165.448z M236.772,162.229
		c-1.418,10.722-4.858,21.195-10.079,30.715c-5.218,9.521-12.229,18.053-20.514,25.018c-8.283,6.976-17.844,12.362-28.107,15.874
		c-10.283,3.564-21.238,5.092-32.022,4.683c-10.803-0.419-21.531-2.872-31.483-7.196c-9.96-4.305-19.11-10.506-26.818-18.124
		c-7.718-7.612-13.979-16.64-18.401-26.517c-4.446-9.851-7.064-20.674-7.61-31.47c-0.58-10.805,0.866-21.695,4.253-31.994
		c3.375-10.298,8.68-19.995,15.573-28.375c6.878-8.394,15.299-15.478,24.717-20.788c9.405-5.289,19.85-8.937,30.624-10.465
		c10.734-1.565,21.7-1.142,32.255,1.278c10.552,2.411,20.686,6.796,29.678,12.882c8.993,6.083,16.839,13.827,23,22.715
		c6.174,8.887,10.646,18.904,13.24,29.487C237.605,140.549,238.204,151.505,236.772,162.229z"/>
</g>
</svg>
