<?xml version="1.0" encoding="utf-8"?>
<!-- Generator: Adobe Illustrator 15.1.0, SVG Export Plug-In . SVG Version: 6.00 Build 0)  -->
<!DOCTYPE svg PUBLIC "-//W3C//DTD SVG 1.1//EN" "http://www.w3.org/Graphics/SVG/1.1/DTD/svg11.dtd">
<svg version="1.1" id="Layer_1" xmlns="http://www.w3.org/2000/svg" xmlns:xlink="http://www.w3.org/1999/xlink" x="0px" y="0px"
	 width="300px" height="300px" viewBox="0 0 300 300" enable-background="new 0 0 300 300" xml:space="preserve">
<path fill="#282A1F" d="M270.533,150.584l-0.607-12.012c9.307-3.975,18.479-8.695,27.518-14.15
	c-0.744-5.656-2.566-11.107-3.902-16.643c-10.637-1.442-21.406-1.916-31.658-1.629c-1.369-3.768-3.371-7.27-5.035-10.914
	c-1.809-3.576-4.084-6.898-6.107-10.355c6.498-7.945,12.299-16.319,17.773-25.367c-3.264-4.68-7.428-8.609-11.18-12.879
	c-10.07,3.676-19.822,8.26-28.77,13.275c-2.982-2.676-6.355-4.884-9.52-7.34c-3.283-2.289-6.811-4.226-10.207-6.35
	c2.057-10.009,3.336-20.158,3.98-30.711c-5.076-2.614-10.604-4.188-15.924-6.229c-7.219,7.928-13.727,16.539-19.307,25.143
	c-3.875-1.044-7.903-1.336-11.848-2.035c-3.959-0.641-7.994-0.531-11.986-0.828c-2.84-10.072-6.42-19.403-10.735-29.063
	c-5.688,0.111-11.319,0.992-16.95,1.902c-2.756,10.173-4.516,20.893-5.448,31.201c-3.932,0.85-7.684,2.275-11.439,3.68
	c-3.827,1.23-7.392,3.086-11.007,4.822c-7.168-7.52-14.823-14.373-23.07-20.751c-4.96,2.823-9.611,6.094-14.104,9.6
	c2.328,10.312,5.729,20.546,9.724,30.138c-3.075,2.59-5.739,5.588-8.415,8.573c-2.82,2.864-5.1,6.178-7.516,9.374
	c-9.844-3.348-19.759-5.852-30.051-7.702c-3.104,4.788-5.667,9.874-8.059,15.058c6.823,8.055,14.619,15.57,22.594,22.2
	c-1.527,3.72-2.487,7.613-3.455,11.505c-1.156,3.852-1.676,7.836-2.268,11.803c-10.24,1.633-20.331,4.032-30.19,7.188
	c-0.384,5.676-0.556,11.348-0.101,17.023c9.939,3.939,19.936,7.008,30.291,9.159c0.592,3.964,1.111,7.948,2.268,11.8
	c0.968,3.891,1.928,7.787,3.455,11.507c-8.079,6.1-16.271,13.067-23.441,20.415c2.491,5.123,4.768,10.375,7.883,15.15
	c10.731-1.195,20.891-3.064,31.074-6.012c2.416,3.195,4.695,6.512,7.516,9.375c2.676,2.984,5.344,5.984,8.415,8.576
	c-4.336,9.167-8.335,19.103-11.3,28.946c4.561,3.406,9.023,6.951,13.992,9.764c8.938-6.004,17.102-12.408,24.758-19.729
	c3.615,1.736,7.18,3.592,11.007,4.824c3.756,1.404,7.508,2.828,11.439,3.68c0.437,10.111,1.528,20.799,3.499,30.891
	c5.633,0.787,11.244,2.016,16.932,2.107c5.1-9.615,9.336-18.895,12.703-28.957c3.996-0.297,8.027-0.189,11.986-0.828
	c3.944-0.701,7.973-0.992,11.848-2.037c5.084,8.783,10.904,17.398,17.436,25.768c5.371-1.885,10.803-3.705,16.01-6.004
	c0.072-10.879-0.615-21.322-2.195-31.559c3.396-2.123,6.924-4.063,10.207-6.351c3.164-2.457,6.537-4.664,9.52-7.34
	c8.588,5.403,17.744,10.319,27.402,14.69c3.867-4.155,7.84-8.259,11.359-12.719c-4.992-9.671-10.402-18.575-16.586-26.942
	c2.023-3.459,4.299-6.779,6.107-10.355c1.664-3.644,3.666-7.146,5.035-10.915c10.115,0.8,20.51,0.896,31.102,0.269
	c1.508-5.488,3.064-11.004,4.152-16.588c-8.904-6.23-17.982-11.603-27.211-16.102L270.533,150.584z"/>
</svg>
