<?xml version="1.0" encoding="utf-8"?>
<!-- Generator: Adobe Illustrator 15.1.0, SVG Export Plug-In . SVG Version: 6.00 Build 0)  -->
<!DOCTYPE svg PUBLIC "-//W3C//DTD SVG 1.1//EN" "http://www.w3.org/Graphics/SVG/1.1/DTD/svg11.dtd">
<svg version="1.1" id="Layer_1" xmlns="http://www.w3.org/2000/svg" xmlns:xlink="http://www.w3.org/1999/xlink" x="0px" y="0px"
	 width="200px" height="200px" viewBox="0 0 200 200" enable-background="new 0 0 200 200" xml:space="preserve">
<g>
	<path fill="#FFFFFF" d="M124.573,66.091c-5.504-3.821-11.922-6.152-18.535-7.013c-6.668-0.918-13.502,0.098-19.713,2.4
		c-6.273,2.272-11.883,6.285-16.326,11.283c-4.529,4.954-7.617,11.093-9.217,17.545c-1.657,6.44-1.657,13.421,0,19.861
		c1.6,6.452,4.688,12.591,9.218,17.544c4.442,4.999,10.052,9.011,16.325,11.283c6.211,2.303,13.046,3.318,19.713,2.4
		c6.613-0.861,13.031-3.192,18.535-7.014c5.436-3.873,10.107-8.945,13.184-14.879c3.053-5.939,4.703-12.533,4.766-19.266
		c-0.063-6.733-1.713-13.327-4.766-19.265C134.68,75.037,130.009,69.964,124.573,66.091z"/>
	<path fill="#282A1F" d="M159.2,100.236l-0.297-5.865c4.545-1.943,9.023-4.248,13.438-6.912c-0.364-2.76-1.255-5.423-1.907-8.126
		c-5.193-0.704-10.453-0.936-15.459-0.795c-0.669-1.84-1.646-3.55-2.458-5.331c-0.884-1.745-1.995-3.368-2.983-5.056
		c3.174-3.88,6.006-7.969,8.68-12.388c-1.594-2.284-3.628-4.203-5.459-6.288c-4.919,1.794-9.681,4.033-14.049,6.481
		c-1.457-1.306-3.104-2.384-4.648-3.584c-1.604-1.117-3.326-2.063-4.985-3.1c1.005-4.887,1.629-9.844,1.944-14.997
		c-2.479-1.276-5.178-2.044-7.775-3.041c-3.525,3.872-6.703,8.076-9.428,12.278c-1.893-0.51-3.859-0.653-5.785-0.994
		c-1.934-0.313-3.904-0.26-5.854-0.404c-1.387-4.919-3.134-9.475-5.243-14.192c-2.775,0.055-5.526,0.484-8.275,0.929
		c-1.347,4.968-2.205,10.203-2.662,15.236c-1.918,0.415-3.75,1.111-5.585,1.797c-1.87,0.601-3.61,1.507-5.375,2.354
		c-3.499-3.671-7.237-7.019-11.265-10.133c-2.422,1.379-4.693,2.977-6.887,4.688c1.135,5.035,2.796,10.033,4.746,14.716
		c-1.5,1.265-2.801,2.729-4.108,4.187c-1.378,1.399-2.489,3.017-3.67,4.578c-4.806-1.636-9.647-2.857-14.673-3.761
		c-1.516,2.338-2.77,4.821-3.936,7.352c3.332,3.935,7.139,7.604,11.033,10.841c-0.746,1.817-1.215,3.719-1.688,5.62
		c-0.565,1.881-0.818,3.825-1.108,5.762c-5,0.797-9.928,1.969-14.741,3.511c-0.188,2.771-0.271,5.542-0.049,8.312
		c4.853,1.924,9.734,3.422,14.79,4.473c0.29,1.937,0.544,3.881,1.108,5.762c0.473,1.9,0.942,3.803,1.688,5.619
		c-3.945,2.979-7.945,6.381-11.447,9.97c1.217,2.502,2.328,5.065,3.85,7.399c5.24-0.586,10.2-1.498,15.174-2.938
		c1.18,1.562,2.292,3.18,3.67,4.578c1.307,1.459,2.608,2.922,4.108,4.188c-2.116,4.478-4.069,9.328-5.517,14.135
		c2.226,1.665,4.406,3.395,6.833,4.768c4.365-2.931,8.35-6.059,12.089-9.632c1.765,0.848,3.505,1.753,5.375,2.354
		c1.835,0.686,3.666,1.381,5.586,1.797c0.213,4.938,0.746,10.157,1.709,15.086c2.751,0.384,5.491,0.982,8.268,1.027
		c2.49-4.695,4.559-9.225,6.203-14.141c1.951-0.145,3.92-0.092,5.854-0.404c1.927-0.342,3.894-0.484,5.785-0.994
		c2.482,4.289,5.324,8.497,8.514,12.582c2.623-0.92,5.275-1.808,7.818-2.932c0.035-5.313-0.3-10.412-1.072-15.41
		c1.658-1.037,3.381-1.983,4.985-3.101c1.544-1.2,3.19-2.278,4.648-3.585c4.193,2.639,8.663,5.039,13.38,7.174
		c1.89-2.029,3.828-4.032,5.547-6.211c-2.437-4.722-5.079-9.07-8.1-13.156c0.989-1.688,2.1-3.311,2.983-5.057
		c0.812-1.78,1.79-3.49,2.458-5.33c4.939,0.391,10.016,0.438,15.188,0.131c0.736-2.681,1.496-5.373,2.027-8.1
		c-4.348-3.043-8.781-5.666-13.287-7.864L159.2,100.236z M137.757,119.502c-3.076,5.934-7.748,11.006-13.184,14.879
		c-5.504,3.821-11.922,6.152-18.535,7.014c-6.667,0.918-13.502-0.098-19.713-2.4c-6.273-2.272-11.883-6.284-16.325-11.283
		c-4.53-4.953-7.618-11.092-9.218-17.544c-1.657-6.44-1.657-13.421,0-19.861c1.6-6.452,4.688-12.591,9.217-17.545
		c4.443-4.998,10.053-9.01,16.326-11.283c6.211-2.303,13.045-3.318,19.713-2.4c6.613,0.861,13.031,3.192,18.535,7.013
		c5.436,3.874,10.106,8.946,13.184,14.88c3.053,5.938,4.703,12.532,4.766,19.265C142.46,106.969,140.81,113.563,137.757,119.502z"/>
</g>
</svg>
